<?xml version="1.0" encoding="UTF-8" standalone="no" ?>
<!DOCTYPE svg PUBLIC "-//W3C//DTD SVG 1.1//EN" "http://www.w3.org/Graphics/SVG/1.1/DTD/svg11.dtd">
<svg xmlns="http://www.w3.org/2000/svg" xmlns:xlink="http://www.w3.org/1999/xlink" version="1.1" width="1280" height="1024" viewBox="0 0 1280 1024" xml:space="preserve">
<desc>Created with Fabric.js 5.3.0</desc>
<defs>
</defs>
<g transform="matrix(1 0 0 1 640 512)" id="background-logo"  >
<rect style="stroke: none; stroke-width: 0; stroke-dasharray: none; stroke-linecap: butt; stroke-dashoffset: 0; stroke-linejoin: miter; stroke-miterlimit: 4; fill: rgb(255,255,255); fill-opacity: 0; fill-rule: nonzero; opacity: 1;"  paint-order="stroke"  x="-640" y="-512" rx="0" ry="0" width="1280" height="1024" />
</g>
<g transform="matrix(1.9211538461538462 0 0 1.9211538461538462 634.2365384615385 404.1737478067899)" id="logo-logo"  >
<g style=""  paint-order="stroke"   >
		<g transform="matrix(-0.16297169085598065 -0.5683498286283231 1.4135580204516862 -0.4053312398668751 -4.133970337311723 37.26475771479278)"  >
<g style=""  paint-order="stroke"   >
		<g transform="matrix(1 0 0 1 -56.70812249893187 3.2615139973152267)"  >
<linearGradient id="SVGID_37332_54016" gradientUnits="userSpaceOnUse" gradientTransform="matrix(1 0 0 1 8.5 6.5230279946304535)"  x1="0" y1="49.57848600268478" x2="119.58375500213626" y2="49.57848600268478">
<stop offset="26.499999999999996%" style="stop-color:rgb(250,217,97);stop-opacity: 1"/>
<stop offset="72.5%" style="stop-color:rgb(247,107,28);stop-opacity: 1"/>
</linearGradient>
<path style="stroke: none; stroke-width: 1; stroke-dasharray: none; stroke-linecap: butt; stroke-dashoffset: 0; stroke-linejoin: miter; stroke-miterlimit: 4; fill: url(#SVGID_37332_54016); fill-rule: nonzero; opacity: 1;"  paint-order="stroke"  transform=" translate(-68.29187750106813, -56.10151399731523)" d="M 41.73 105.68 C 5.029999999999994 66.05000000000001 46.949999999999996 21.900000000000006 109.65 11.420000000000002 C 164.45 2.2600000000000016 79.61000000000001 8.760000000000002 79.61000000000001 8.760000000000002 L 22.6 38.33 L 11.200000000000001 54.75 L 8.5 64.99 L 21.85 93.05 L 35.900000000000006 102.35 L 41.73 105.68 z" stroke-linecap="round" />
</g>
		<g transform="matrix(1 0 0 1 0 0)"  >
<path style="stroke: none; stroke-width: 1; stroke-dasharray: none; stroke-linecap: butt; stroke-dashoffset: 0; stroke-linejoin: miter; stroke-miterlimit: 4; fill: rgb(0,94,206); fill-rule: nonzero; opacity: 1;"  paint-order="stroke"  transform=" translate(-125, -52.84)" d="M 15.84 69.77 C 15.84 35.769999999999996 77.6 8.199999999999996 153.78 8.199999999999996 C 191.21 8.199999999999996 225.14 14.859999999999996 250 25.659999999999997 C 224.96 10.12 184.1 0 137.94 0 C 61.76 0 0 27.57 0 61.57 C 0 78.87 15.99 94.5 41.73 105.68 C 25.44 95.57 15.84 83.18 15.84 69.77 z" stroke-linecap="round" />
</g>
</g>
</g>
		<g transform="matrix(-0.04934052738599636 0.4694437599139184 0.3078015477679325 -0.44087230900210733 75.99937586322392 -48.78001044982838)"  >
<g style=""  paint-order="stroke"   >
		<g transform="matrix(1 0 0 1 0 0)"  >
<linearGradient id="SVGID_37333_54017" gradientUnits="userSpaceOnUse" gradientTransform="matrix(1 0 0 1 0.0008263189533153081 0)"  x1="0" y1="44.95867079226349" x2="249.99917368104667" y2="44.95867079226349">
<stop offset="31%" style="stop-color:rgb(247,107,28);stop-opacity: 1"/>
<stop offset="92.5%" style="stop-color:rgb(250,217,97);stop-opacity: 1"/>
</linearGradient>
<path style="stroke: none; stroke-width: 1; stroke-dasharray: none; stroke-linecap: butt; stroke-dashoffset: 0; stroke-linejoin: miter; stroke-miterlimit: 4; fill: url(#SVGID_37333_54017); fill-rule: nonzero; opacity: 1;"  paint-order="stroke"  transform=" translate(-125.00041315947665, -44.95867079226349)" d="M 0.06 0 C 8.370000000000001 21.63 23.98 41.11 43.99 52.27 C 62.17 62.55 83.72 65.8 104.5 66.22 C 153.42000000000002 67.1 202.49 55.04 250 43.08 C 240.12 50.73 229.32999999999998 57.11 218.2 62.739999999999995 C 173.38 85.00999999999999 119.57999999999998 97.34 69.82 85.07 C 44.169999999999995 78.71 20.019999999999996 61.019999999999996 8.519999999999996 37.029999999999994 C 2.83 25.55 -0.49 12.73 0.06 0 L 0.06 0 z" stroke-linecap="round" />
</g>
</g>
</g>
		<g transform="matrix(0.2071085946791365 -0.3895146152137389 0.08673736863605357 0.2929635619148584 58.471651919948556 -30.360608925648677)"  >
<g style=""  paint-order="stroke"   >
		<g transform="matrix(1 0 0 1 0 0)"  >
<linearGradient id="SVGID_37334_54018" gradientUnits="userSpaceOnUse" gradientTransform="matrix(1 0 0 1 0.0008263189533153081 0)"  x1="0" y1="44.95867079226349" x2="249.99917368104667" y2="44.95867079226349">
<stop offset="26.499999999999996%" style="stop-color:rgb(250,217,97);stop-opacity: 1"/>
<stop offset="72.5%" style="stop-color:rgb(247,107,28);stop-opacity: 1"/>
</linearGradient>
<path style="stroke: none; stroke-width: 1; stroke-dasharray: none; stroke-linecap: butt; stroke-dashoffset: 0; stroke-linejoin: miter; stroke-miterlimit: 4; fill: url(#SVGID_37334_54018); fill-rule: nonzero; opacity: 1;"  paint-order="stroke"  transform=" translate(-125.00041315947665, -44.95867079226349)" d="M 0.06 0 C 8.370000000000001 21.63 23.98 41.11 43.99 52.27 C 62.17 62.55 83.72 65.8 104.5 66.22 C 153.42000000000002 67.1 202.49 55.04 250 43.08 C 240.12 50.73 229.32999999999998 57.11 218.2 62.739999999999995 C 173.38 85.00999999999999 119.57999999999998 97.34 69.82 85.07 C 44.169999999999995 78.71 20.019999999999996 61.019999999999996 8.519999999999996 37.029999999999994 C 2.83 25.55 -0.49 12.73 0.06 0 L 0.06 0 z" stroke-linecap="round" />
</g>
</g>
</g>
		<g transform="matrix(0.6829119857751093 0 0 0.6829119857751093 11.11872050779158 6.149407015629038)"  >
<g style=""  paint-order="stroke"   >
		<g transform="matrix(1 0 0 1 4.8779077025299955 0)"  >
<path style="stroke: none; stroke-width: 1; stroke-dasharray: none; stroke-linecap: butt; stroke-dashoffset: 0; stroke-linejoin: miter; stroke-miterlimit: 4; fill: rgb(0,94,206); fill-rule: nonzero; opacity: 1;"  paint-order="stroke"  transform=" translate(150.12203436470344, -396.999987247685)" d="M -93.67519 447.81058 C -97.27584 454.1272 -102.00277 459.70688 -106.69809000000001 465.24448 C -118.28264000000001 478.90738 -125.38718 485.88285 -136.35076 498.62671 C -137.62006 500.10208 -139.41904 501.03012 -141.35776 501.20126 L -156.83634 502.56753 C -158.4704 502.71175999999997 -159.50142 500.85454999999996 -158.51566 499.54335999999995 C -147.77175 485.25246999999996 -132.33204 466.64378999999997 -125.58473000000001 452.12697999999995 C -124.85838000000001 450.55834999999996 -124.16352 448.69494 -124.99512000000001 447.17894999999993 C -126.84801000000002 443.81004999999993 -136.24931 439.53581999999994 -139.64987000000002 438.57780999999994 C -142.47122000000002 437.7776999999999 -146.94549000000004 436.86180999999993 -149.65118 438.59883999999994 C -151.31439 439.66212999999993 -153.71473 442.91524999999996 -154.97815 444.42067999999995 C -162.97591 454.00310999999994 -204.93645 505.48805999999996 -214.45438000000001 517.1605199999999 C -215.68616 518.67108 -217.46058000000002 519.63727 -219.3973 519.8569299999999 C -225.64454 520.56549 -231.41689 521.2291799999999 -237.63758 521.98516 C -239.25172 522.18133 -240.35464000000002 520.3883 -239.44274000000001 519.0420399999999 C -224.86213 497.5161299999999 -210.15511 476.04984999999994 -197.5732 453.2744599999999 C -181.79218 424.7127799999999 -164.42147 389.5397499999999 -170.62230000000002 355.6721299999999 C -125.42693000000003 364.37848999999994 -113.37263000000002 389.8660999999999 -112.24622000000002 397.07755999999995 C -111.08807000000002 404.56278999999995 -112.51996000000003 412.94278999999995 -112.51996000000003 412.94278999999995 C -108.07729000000003 415.48001999999997 -104.02403000000002 417.62762999999995 -99.58136000000003 420.16486999999995 C -96.98105000000004 421.64924999999994 -94.31751000000003 423.18631999999997 -92.44355000000003 425.52341999999993 C -87.49555 431.69266 -89.76945 440.92548 -93.67519 447.81058 z M -67.14524 272.8931 C -68.45100000000001 271.40879 -70.85998000000001 271.84317 -71.56901 273.68857 C -74.24342 280.64926 -77.45648 287.40793 -81.25129000000001 293.83524 C -96.21112000000001 319.13334 -121.69866000000002 342.56803 -152.66081000000003 342.98908 C -124.66754000000003 350.26377 -116.65597000000002 368.13981 -110.86574000000002 387.18444999999997 C -110.22357000000002 372.56143 -102.63313000000002 354.98017 -93.63189000000001 343.62078999999994 C -85.11488000000001 332.86144999999993 -79.25897 323.9582199999999 -71.97376000000001 312.3251399999999 C -66.16402000000001 303.0651899999999 -61.056500000000014 288.24279999999993 -60.48099000000001 281.6549099999999 C -60.419570000000014 280.95181999999994 -60.66522000000001 280.2592199999999 -61.13140000000001 279.7292799999999 L -67.14524 272.8931 z M -142.02017 331.11652 C -130.25546 331.11652 -120.71827 321.57932 -120.71827 309.81460999999996 C -120.71827 298.0498999999999 -130.25546 288.51269999999994 -142.02017 288.51269999999994 C -153.78489000000002 288.51269999999994 -163.32208 298.0498999999999 -163.32208 309.81460999999996 C -163.32208 321.57932 -153.7849 331.11652 -142.02017 331.11652 z" stroke-linecap="round" />
</g>
		<g transform="matrix(1 0 0 1 14.350164374080606 -20.417922247685)"  >
<path style="stroke: none; stroke-width: 1; stroke-dasharray: none; stroke-linecap: butt; stroke-dashoffset: 0; stroke-linejoin: miter; stroke-miterlimit: 4; fill: rgb(0,59,171); fill-rule: nonzero; opacity: 1;"  paint-order="stroke"  transform=" translate(140.64977769315283, -376.582065)" d="M -111.79725 403.53683 L -111.79725 403.54736 L -112.5236 412.93805000000003 C -116.35583 386.12402000000003 -150.4655 377.39652 -169.38376 372.98538 C -169.20487 367.20569 -169.57318 361.41546 -170.62595 355.66736000000003 C -125.43057999999999 364.37375000000003 -113.37640999999999 389.86133 -112.24986999999999 397.07279000000005 C -111.91316 399.23096 -111.79725 401.46289 -111.79725 403.53683 z M -121.23404 352.21277 C -125.22407999999999 347.65423999999996 -129.96693 343.21596999999997 -135.06217999999998 340.22607999999997 C -140.69460999999998 341.93154999999996 -146.56888999999998 342.90009 -152.66447 342.98431999999997 C -124.70307 350.24848 -116.68083999999999 368.09292999999997 -110.89059999999999 387.11645999999996 L -110.78522 385.80047999999994 L -110.722 384.9582899999999 C -110.24933 373.39624 -113.20152 361.39288 -121.23404 352.21277 z" stroke-linecap="round" />
</g>
		<g transform="matrix(1 0 0 1 -24.888813268592543 -23.603766117291457)"  >
<path style="stroke: none; stroke-width: 1; stroke-dasharray: none; stroke-linecap: butt; stroke-dashoffset: 0; stroke-linejoin: miter; stroke-miterlimit: 4; fill: rgb(5,164,225); fill-rule: nonzero; opacity: 1;"  paint-order="stroke"  transform=" translate(179.88875533582598, -373.39622113039354)" d="M -242.54019 412.12524 C -241.49388 413.02676 -239.90108 412.7994 -239.13129999999998 411.65271 C -183.15677 328.27020000000005 -126.38483999999998 381.30707 -126.38483999999998 381.30707 C -117.67839999999998 389.30811 -111.90923999999998 400.97284 -112.51992999999999 412.94281 C -111.84328999999998 409.77628 -111.25711999999999 406.56744000000003 -110.82002999999999 403.33334 C -107.14101999999998 376.11154 -121.49822999999999 349.33014000000003 -146.68839 338.37494000000004 C -170.82853 327.87637000000007 -208.41894 330.43079000000006 -249.23987 403.93124 C -249.76756 404.8814 -249.55516 406.08108 -248.73178 406.79052 L -242.54019 412.12524 z" stroke-linecap="round" />
</g>
</g>
</g>
		<g transform="matrix(0.5338711298681084 -0.41690726160415653 -0.1565553231556106 0.896819074665059 -3.643915934706399 -2.4803596796150202)"  >
<g style=""  paint-order="stroke"   >
		<g transform="matrix(1 0 0 1 0 0)"  >
<linearGradient id="SVGID_37334_54019" gradientUnits="userSpaceOnUse" gradientTransform="matrix(1 0 0 1 0.0008263189533153081 0)"  x1="0" y1="44.95867079226349" x2="249.99917368104667" y2="44.95867079226349">
<stop offset="26.499999999999996%" style="stop-color:rgb(250,217,97);stop-opacity: 1"/>
<stop offset="72.5%" style="stop-color:rgb(247,107,28);stop-opacity: 1"/>
</linearGradient>
<path style="stroke: none; stroke-width: 1; stroke-dasharray: none; stroke-linecap: butt; stroke-dashoffset: 0; stroke-linejoin: miter; stroke-miterlimit: 4; fill: url(#SVGID_37334_54019); fill-rule: nonzero; opacity: 1;"  paint-order="stroke"  transform=" translate(-125.00041315947665, -44.95867079226349)" d="M 0.06 0 C 8.370000000000001 21.63 23.98 41.11 43.99 52.27 C 62.17 62.55 83.72 65.8 104.5 66.22 C 153.42000000000002 67.1 202.49 55.04 250 43.08 C 240.12 50.73 229.32999999999998 57.11 218.2 62.739999999999995 C 173.38 85.00999999999999 119.57999999999998 97.34 69.82 85.07 C 44.169999999999995 78.71 20.019999999999996 61.019999999999996 8.519999999999996 37.029999999999994 C 2.83 25.55 -0.49 12.73 0.06 0 L 0.06 0 z" stroke-linecap="round" />
</g>
</g>
</g>
		<g transform="matrix(0.22083800536783177 0 0 0.22083800536783174 83.59780302330705 -92.22157757105805)"  >
<g style=""  paint-order="stroke"   >
		<g transform="matrix(1 0 0 1 0 0)"  >
<linearGradient id="SVGID_37336_54020" gradientUnits="userSpaceOnUse" gradientTransform="matrix(1 0 0 1 -125 -118.882055)"  x1="0" y1="0" x2="0" y2="238">
<stop offset="0%" style="stop-color:rgb(250,217,97);stop-opacity: 1"/>
<stop offset="100%" style="stop-color:rgb(247,107,28);stop-opacity: 1"/>
</linearGradient>
<polygon style="stroke: none; stroke-width: 1; stroke-dasharray: none; stroke-linecap: butt; stroke-dashoffset: 0; stroke-linejoin: miter; stroke-miterlimit: 4; fill: url(#SVGID_37336_54020); fill-rule: nonzero; opacity: 1;"  paint-order="stroke"  points="-0.00001000000000317414,-118.882055 46.352540000000005,-51.24809499999999 125,-28.06425499999999 75,36.91970500000001 77.25424000000001,118.882055 -0.00001000000000317414,91.41039500000001 -77.25425,118.882055 -75,36.91970500000001 -125,-28.06425499999999 -46.352549999999994,-51.24809499999999 " />
</g>
</g>
</g>
		<g transform="matrix(0.1693104355195979 0 0 0.16931043551959793 83.88745654150205 -94.5222097578685)"  >
<g style=""  paint-order="stroke"   >
		<g transform="matrix(1 0 0 1 0 0)"  >
<linearGradient id="SVGID_37337_54021" gradientUnits="userSpaceOnUse" gradientTransform="matrix(1 0 0 1 -125 -118.882055)"  x1="124.99999999999997" y1="0" x2="125.00000000000003" y2="237.76411">
<stop offset="0%" style="stop-color:rgb(255,233,156);stop-opacity: 1"/>
<stop offset="100%" style="stop-color:rgb(248,164,38);stop-opacity: 1"/>
</linearGradient>
<polygon style="stroke: none; stroke-width: 1; stroke-dasharray: none; stroke-linecap: butt; stroke-dashoffset: 0; stroke-linejoin: miter; stroke-miterlimit: 4; fill: url(#SVGID_37337_54021); fill-rule: nonzero; opacity: 1;"  paint-order="stroke"  points="-0.00001000000000317414,-118.882055 46.352540000000005,-51.24809499999999 125,-28.06425499999999 75,36.91970500000001 77.25424000000001,118.882055 -0.00001000000000317414,91.41039500000001 -77.25425,118.882055 -75,36.91970500000001 -125,-28.06425499999999 -46.352549999999994,-51.24809499999999 " />
</g>
</g>
</g>
</g>
</g>
<g transform="matrix(1.9211538461538462 0 0 1.9211538461538462 640.3169903846156 706.9517550363288)" id="text-logo"  >
<g style=""  paint-order="stroke"   >
		<g transform="matrix(1 0 0 1 0 0)" id="text-logo-path-0"  >
<path style="stroke: none; stroke-width: 0; stroke-dasharray: none; stroke-linecap: butt; stroke-dashoffset: 0; stroke-linejoin: miter; stroke-miterlimit: 4; fill: rgb(15,61,154); fill-rule: nonzero; opacity: 1;"  paint-order="stroke"  transform=" translate(-223.19, 18.425)" d="M 16.61 -7.7 L 11.55 -7.7 L 11.55 -29.15 L 16.61 -29.15 C 22.33 -29.15 26.84 -24.42 26.84 -18.43 C 26.84 -12.48 22.33 -7.7 16.61 -7.7 Z M 17.16 -36.85 L 2.75 -36.85 L 2.75 0 L 17.16 0 C 23.93 0 29.86 -3.58 33.16 -9.24 C 34.81 -12.04 35.64 -15.13 35.64 -18.43 C 35.64 -25.02 32.17 -31.02 26.51 -34.38 C 23.71 -36.02 20.57 -36.85 17.16 -36.85 Z M 52.69 0 L 52.69 -36.85 L 43.89 -36.85 L 43.89 0 Z M 81.07 -11.82 L 87.72 -11.82 C 85.91 -9.63 83.16 -8.25 80.08 -8.25 C 74.47 -8.25 70.02 -12.76 70.02 -18.43 C 70.02 -24.09 74.53 -28.6 80.08 -28.6 C 83.6 -28.6 86.84 -26.73 88.66 -23.82 L 96.41 -28.32 C 92.95 -33.88 86.9 -37.45 80.08 -37.45 C 73.04 -37.45 66.83 -33.77 63.47 -27.94 C 61.77 -25.02 60.94 -21.84 60.94 -18.43 C 60.94 -11.61 64.57 -5.45 70.45 -1.98 C 73.37 -0.28 76.61 0.6 80.08 0.6 C 83.88 0.6 87.45 -0.49 90.42 -2.37 L 90.42 0 L 99.22 0 L 99.22 -19.52 L 81.07 -19.52 Z M 122.7 -37.4 C 114.18 -37.4 108.35 -32.95 108.35 -25.96 C 108.35 -20.41 111.59 -16.89 118.08 -15.46 L 125.67 -13.8 C 128.09 -13.31 129.31 -12.43 129.31 -11.17 C 129.31 -9.24 127.44 -8.25 123.69 -8.25 C 120.67 -8.25 117.59 -10.01 116.55 -12.81 L 107.47 -9.63 C 109.01 -3.02 115.28 0.55 123.2 0.55 C 128.31 0.55 133.16 -1.1 136.01 -4.67 C 137.44 -6.43 138.16 -8.63 138.16 -11.22 C 138.16 -16.77 134.86 -20.3 128.2 -21.78 L 120.67 -23.48 C 118.75 -23.93 117.42 -24.8 117.42 -25.96 C 117.42 -27.89 119.68 -28.6 122.59 -28.6 C 126.17 -28.6 128.48 -27.72 128.97 -24.7 L 137.44 -28 C 135.63 -34.16 129.97 -37.4 122.7 -37.4 Z M 169.84 0 L 172.59 -7.15 L 186.01 -7.15 L 188.76 0 L 198.44 0 L 184.14 -36.85 L 174.46 -36.85 L 160.16 0 Z M 175.62 -14.85 L 179.3 -24.36 L 182.98 -14.85 Z M 215.49 0 L 215.49 -22.77 L 228.91 0 L 239.69 0 L 239.69 -36.85 L 230.89 -36.85 L 230.89 -13.97 L 217.41 -36.85 L 206.69 -36.85 L 206.69 0 Z M 261.8 -7.7 L 256.74 -7.7 L 256.74 -29.15 L 261.8 -29.15 C 267.52 -29.15 272.03 -24.42 272.03 -18.43 C 272.03 -12.48 267.52 -7.7 261.8 -7.7 Z M 262.35 -36.85 L 247.94 -36.85 L 247.94 0 L 262.35 0 C 269.12 0 275.06 -3.58 278.36 -9.24 C 280 -12.04 280.83 -15.13 280.83 -18.43 C 280.83 -25.02 277.37 -31.02 271.7 -34.38 C 268.89 -36.02 265.76 -36.85 262.35 -36.85 Z M 322.96 -11.82 L 329.62 -11.82 C 327.8 -9.63 325.05 -8.25 321.97 -8.25 C 316.36 -8.25 311.9 -12.76 311.9 -18.43 C 311.9 -24.09 316.41 -28.6 321.97 -28.6 C 325.49 -28.6 328.74 -26.73 330.55 -23.82 L 338.31 -28.32 C 334.84 -33.88 328.79 -37.45 321.97 -37.45 C 314.93 -37.45 308.71 -33.77 305.36 -27.94 C 303.65 -25.02 302.83 -21.84 302.83 -18.43 C 302.83 -11.61 306.46 -5.45 312.34 -1.98 C 315.26 -0.28 318.5 0.6 321.97 0.6 C 325.76 0.6 329.34 -0.49 332.31 -2.37 L 332.31 0 L 341.11 0 L 341.11 -19.52 L 322.96 -19.52 Z M 358.16 0 L 358.16 -36.85 L 349.36 -36.85 L 349.36 0 Z M 386.54 -11.82 L 393.2 -11.82 C 391.38 -9.63 388.63 -8.25 385.55 -8.25 C 379.94 -8.25 375.49 -12.76 375.49 -18.43 C 375.49 -24.09 380 -28.6 385.55 -28.6 C 389.07 -28.6 392.32 -26.73 394.13 -23.82 L 401.89 -28.32 C 398.42 -33.88 392.37 -37.45 385.55 -37.45 C 378.51 -37.45 372.3 -33.77 368.94 -27.94 C 367.24 -25.02 366.41 -21.84 366.41 -18.43 C 366.41 -11.61 370.04 -5.45 375.93 -1.98 C 378.84 -0.28 382.09 0.6 385.55 0.6 C 389.35 0.6 392.92 -0.49 395.89 -2.37 L 395.89 0 L 404.69 0 L 404.69 -19.52 L 386.54 -19.52 Z M 428.18 -37.4 C 419.65 -37.4 413.82 -32.95 413.82 -25.96 C 413.82 -20.41 417.07 -16.89 423.56 -15.46 L 431.15 -13.8 C 433.57 -13.31 434.78 -12.43 434.78 -11.17 C 434.78 -9.24 432.91 -8.25 429.17 -8.25 C 426.14 -8.25 423.06 -10.01 422.02 -12.81 L 412.94 -9.63 C 414.48 -3.02 420.75 0.55 428.67 0.55 C 433.79 0.55 438.63 -1.1 441.49 -4.67 C 442.92 -6.43 443.63 -8.63 443.63 -11.22 C 443.63 -16.77 440.33 -20.3 433.68 -21.78 L 426.14 -23.48 C 424.22 -23.93 422.9 -24.8 422.9 -25.96 C 422.9 -27.89 425.15 -28.6 428.07 -28.6 C 431.64 -28.6 433.95 -27.72 434.45 -24.7 L 442.92 -28 C 441.1 -34.16 435.44 -37.4 428.18 -37.4 Z" stroke-linecap="round" />
</g>
</g>
</g>
<g transform="matrix(1.9211538461538462 0 0 1.9211538461538462 640.1267961538462 797.1017780756929)" id="tagline-343996bd-29a2-4a68-bd6a-c8ab96e6c788-logo"  >
<g style=""  paint-order="stroke"   >
		<g transform="matrix(1 0 0 1 5.684342e-14 0)" id="tagline-343996bd-29a2-4a68-bd6a-c8ab96e6c788-logo-path-0"  >
<path style="stroke: none; stroke-width: 0; stroke-dasharray: none; stroke-linecap: butt; stroke-dashoffset: 0; stroke-linejoin: miter; stroke-miterlimit: 4; fill: rgb(0,0,0); fill-rule: nonzero; opacity: 1;"  paint-order="stroke"  transform=" translate(-315.01, 8.04)" d="M 8.28 0 L 12.43 -13.15 L 16.58 0 L 18.6 0 L 23.69 -16.08 L 21.67 -16.08 L 17.59 -3.19 L 13.54 -16.08 L 11.35 -16.08 L 7.27 -3.19 L 3.22 -16.08 L 1.2 -16.08 L 6.26 0 Z M 34.78 0 L 34.78 -7.2 L 44.38 -7.2 L 44.38 0 L 46.3 0 L 46.3 -16.08 L 44.38 -16.08 L 44.38 -8.88 L 34.78 -8.88 L 34.78 -16.08 L 32.86 -16.08 L 32.86 0 Z M 55.46 0 L 66.98 0 L 66.98 -1.68 L 57.38 -1.68 L 57.38 -7.2 L 65.54 -7.2 L 65.54 -8.88 L 57.38 -8.88 L 57.38 -14.4 L 66.98 -14.4 L 66.98 -16.08 L 55.46 -16.08 Z M 78.07 0 L 78.07 -6.7 L 82.7 -6.7 L 86.9 0 L 89.16 0 L 84.94 -6.77 C 87.26 -7.15 88.99 -9.05 88.99 -11.42 C 88.99 -14.04 86.81 -16.08 84.07 -16.08 L 76.15 -16.08 L 76.15 0 Z M 84.07 -8.35 L 78.07 -8.38 L 78.07 -14.4 L 83.95 -14.4 C 85.9 -14.4 87.19 -13.22 87.19 -11.42 C 87.19 -9.6 85.97 -8.4 84.07 -8.35 Z M 98.33 0 L 109.85 0 L 109.85 -1.68 L 100.25 -1.68 L 100.25 -7.2 L 108.41 -7.2 L 108.41 -8.88 L 100.25 -8.88 L 100.25 -14.4 L 109.85 -14.4 L 109.85 -16.08 L 98.33 -16.08 Z M 138.26 0 L 138.26 -14.4 L 144.02 -14.4 L 144.02 -16.08 L 130.58 -16.08 L 130.58 -14.4 L 136.34 -14.4 L 136.34 0 Z M 151.66 0 L 153.31 -3.96 L 161.38 -3.96 L 163.03 0 L 165.1 0 L 158.38 -16.08 L 156.31 -16.08 L 149.59 0 Z M 154.01 -5.64 L 157.34 -13.61 L 160.68 -5.64 Z M 174.26 0 L 185.78 0 L 185.78 -1.68 L 176.18 -1.68 L 176.18 -16.08 L 174.26 -16.08 Z M 194.95 0 L 206.47 0 L 206.47 -1.68 L 196.87 -1.68 L 196.87 -7.2 L 205.03 -7.2 L 205.03 -8.88 L 196.87 -8.88 L 196.87 -14.4 L 206.47 -14.4 L 206.47 -16.08 L 194.95 -16.08 Z M 217.58 0 L 217.58 -13.34 L 227.04 0 L 229.1 0 L 229.1 -16.08 L 227.18 -16.08 L 227.18 -2.71 L 217.7 -16.08 L 215.64 -16.08 L 215.66 -16.06 L 215.66 0 Z M 245.95 0 L 245.95 -14.4 L 251.71 -14.4 L 251.71 -16.08 L 238.27 -16.08 L 238.27 -14.4 L 244.03 -14.4 L 244.03 0 Z M 274.37 0 L 274.37 -12.17 L 280.1 0 L 282 0 L 287.76 -12.22 L 287.76 0 L 289.68 0 L 289.68 -16.08 L 287.71 -16.08 L 281.06 -1.97 L 274.39 -16.08 L 272.45 -16.08 L 272.45 0 Z M 298.85 0 L 310.37 0 L 310.37 -1.68 L 300.77 -1.68 L 300.77 -7.2 L 308.93 -7.2 L 308.93 -8.88 L 300.77 -8.88 L 300.77 -14.4 L 310.37 -14.4 L 310.37 -16.08 L 298.85 -16.08 Z M 319.54 0 L 331.06 0 L 331.06 -1.68 L 321.46 -1.68 L 321.46 -7.2 L 329.62 -7.2 L 329.62 -8.88 L 321.46 -8.88 L 321.46 -14.4 L 331.06 -14.4 L 331.06 -16.08 L 319.54 -16.08 Z M 347.9 0 L 347.9 -14.4 L 353.66 -14.4 L 353.66 -16.08 L 340.22 -16.08 L 340.22 -14.4 L 345.98 -14.4 L 345.98 0 Z M 364.66 -4.99 L 362.83 -4.32 C 363.96 -1.27 366.14 0.24 369.41 0.24 C 372.89 0.24 375.34 -1.75 375.34 -4.44 C 375.34 -6.36 374.14 -7.49 372.67 -8.02 C 371.9 -8.3 370.94 -8.57 369.72 -8.86 C 367.63 -9.34 366.65 -9.65 365.88 -10.39 C 365.47 -10.78 365.28 -11.26 365.28 -11.86 C 365.28 -13.51 366.94 -14.64 369.05 -14.64 C 371.23 -14.64 372.38 -13.75 373.32 -11.4 L 375.1 -12.12 C 373.97 -14.95 372.02 -16.32 369.05 -16.32 C 365.88 -16.32 363.36 -14.45 363.36 -11.86 C 363.36 -9.82 364.66 -8.62 366.17 -8.04 C 366.96 -7.73 367.94 -7.44 369.22 -7.13 C 371.16 -6.65 372.12 -6.41 372.86 -5.74 C 373.22 -5.4 373.42 -4.97 373.42 -4.44 C 373.42 -2.64 371.88 -1.44 369.41 -1.44 C 366.79 -1.44 365.5 -2.64 364.66 -4.99 Z M 404.42 0.26 C 407.5 0.26 410.21 -1.37 411.67 -3.91 C 412.42 -5.18 412.78 -6.55 412.78 -8.04 C 412.78 -11.02 411.19 -13.7 408.62 -15.22 C 407.35 -15.96 405.94 -16.34 404.42 -16.34 C 401.35 -16.34 398.64 -14.74 397.18 -12.19 C 396.43 -10.92 396.07 -9.53 396.07 -8.04 C 396.07 -5.06 397.66 -2.38 400.22 -0.86 C 401.5 -0.12 402.91 0.26 404.42 0.26 Z M 404.42 -1.56 C 402.1 -1.56 400.01 -2.78 398.86 -4.78 C 398.28 -5.76 397.99 -6.86 397.99 -8.04 C 397.99 -10.42 399.22 -12.5 401.21 -13.68 C 402.19 -14.26 403.27 -14.54 404.42 -14.54 C 406.75 -14.54 408.84 -13.3 409.99 -11.3 C 410.57 -10.32 410.86 -9.22 410.86 -8.04 C 410.86 -5.66 409.63 -3.58 407.64 -2.42 C 406.66 -1.85 405.58 -1.56 404.42 -1.56 Z M 423.86 0 L 423.86 -6.24 L 429.86 -6.24 C 432.62 -6.24 434.78 -8.4 434.78 -11.16 C 434.78 -13.92 432.62 -16.08 429.86 -16.08 L 421.94 -16.08 L 421.94 0 Z M 429.74 -7.92 L 423.86 -7.92 L 423.86 -14.4 L 429.74 -14.4 C 431.69 -14.4 432.98 -13.1 432.98 -11.16 C 432.98 -9.22 431.69 -7.92 429.74 -7.92 Z M 445.87 0 L 445.87 -6.24 L 451.87 -6.24 C 454.63 -6.24 456.79 -8.4 456.79 -11.16 C 456.79 -13.92 454.63 -16.08 451.87 -16.08 L 443.95 -16.08 L 443.95 0 Z M 451.75 -7.92 L 445.87 -7.92 L 445.87 -14.4 L 451.75 -14.4 C 453.7 -14.4 454.99 -13.1 454.99 -11.16 C 454.99 -9.22 453.7 -7.92 451.75 -7.92 Z M 474.31 0.26 C 477.38 0.26 480.1 -1.37 481.56 -3.91 C 482.3 -5.18 482.66 -6.55 482.66 -8.04 C 482.66 -11.02 481.08 -13.7 478.51 -15.22 C 477.24 -15.96 475.82 -16.34 474.31 -16.34 C 471.24 -16.34 468.53 -14.74 467.06 -12.19 C 466.32 -10.92 465.96 -9.53 465.96 -8.04 C 465.96 -5.06 467.54 -2.38 470.11 -0.86 C 471.38 -0.12 472.8 0.26 474.31 0.26 Z M 474.31 -1.56 C 471.98 -1.56 469.9 -2.78 468.74 -4.78 C 468.17 -5.76 467.88 -6.86 467.88 -8.04 C 467.88 -10.42 469.1 -12.5 471.1 -13.68 C 472.08 -14.26 473.16 -14.54 474.31 -14.54 C 476.64 -14.54 478.73 -13.3 479.88 -11.3 C 480.46 -10.32 480.74 -9.22 480.74 -8.04 C 480.74 -5.66 479.52 -3.58 477.53 -2.42 C 476.54 -1.85 475.46 -1.56 474.31 -1.56 Z M 493.75 0 L 493.75 -6.7 L 498.38 -6.7 L 502.58 0 L 504.84 0 L 500.62 -6.77 C 502.94 -7.15 504.67 -9.05 504.67 -11.42 C 504.67 -14.04 502.49 -16.08 499.75 -16.08 L 491.83 -16.08 L 491.83 0 Z M 499.75 -8.35 L 493.75 -8.38 L 493.75 -14.4 L 499.63 -14.4 C 501.58 -14.4 502.87 -13.22 502.87 -11.42 C 502.87 -9.6 501.65 -8.4 499.75 -8.35 Z M 520.25 0 L 520.25 -14.4 L 526.01 -14.4 L 526.01 -16.08 L 512.57 -16.08 L 512.57 -14.4 L 518.33 -14.4 L 518.33 0 Z M 546.7 -16.08 L 546.7 -6.53 C 546.7 -3.6 544.51 -1.56 541.92 -1.56 C 539.14 -1.56 537.1 -3.67 537.1 -6.53 L 537.1 -16.08 L 535.18 -16.08 L 535.18 -6.53 C 535.18 -4.06 536.5 -1.9 538.56 -0.67 C 539.59 -0.07 540.7 0.24 541.92 0.24 C 544.32 0.24 546.53 -1.08 547.73 -3.14 C 548.33 -4.18 548.62 -5.3 548.62 -6.53 L 548.62 -16.08 Z M 559.73 0 L 559.73 -13.34 L 569.18 0 L 571.25 0 L 571.25 -16.08 L 569.33 -16.08 L 569.33 -2.71 L 559.85 -16.08 L 557.78 -16.08 L 557.81 -16.06 L 557.81 0 Z M 582.34 0 L 582.34 -16.08 L 580.42 -16.08 L 580.42 0 Z M 599.18 0 L 599.18 -14.4 L 604.94 -14.4 L 604.94 -16.08 L 591.5 -16.08 L 591.5 -14.4 L 597.26 -14.4 L 597.26 0 Z M 622.42 -6.19 L 622.61 -6.48 L 628.82 -16.08 L 626.52 -16.08 L 621.46 -8.26 L 616.42 -16.08 L 614.11 -16.08 L 620.3 -6.48 L 620.5 -6.19 L 620.5 0 L 622.42 0 Z" stroke-linecap="round" />
</g>
</g>
</g>
</svg>