<?xml version="1.0" encoding="UTF-8" standalone="no" ?>
<!DOCTYPE svg PUBLIC "-//W3C//DTD SVG 1.1//EN" "http://www.w3.org/Graphics/SVG/1.1/DTD/svg11.dtd">
<svg xmlns="http://www.w3.org/2000/svg" xmlns:xlink="http://www.w3.org/1999/xlink" version="1.1" width="1280" height="500" viewBox="0 262 1280 500" xml:space="preserve">
<desc>Created with Fabric.js 5.3.0</desc>
<defs>
</defs>
<g transform="matrix(1 0 0 1 640 512)" id="background-logo"  >
<rect style="stroke: none; stroke-width: 0; stroke-dasharray: none; stroke-linecap: butt; stroke-dashoffset: 0; stroke-linejoin: miter; stroke-miterlimit: 4; fill: rgb(255,255,255); fill-opacity: 0; fill-rule: nonzero; opacity: 1;"  paint-order="stroke"  x="-640" y="-512" rx="0" ry="0" width="1280" height="1024" />
</g>
<g transform="matrix(1.9211538461538462 0 0 1.9211538461538462 229.26221373190714 527.9891491456406)" id="logo-logo"  >
<g style=""  paint-order="stroke"   >
		<g transform="matrix(-0.16297169085598065 -0.5683498286283231 1.4135580204516862 -0.4053312398668751 -4.133970337311723 37.26475771479278)"  >
<g style=""  paint-order="stroke"   >
		<g transform="matrix(1 0 0 1 -56.70812249893187 3.2615139973152267)"  >
<linearGradient id="SVGID_37332_786410" gradientUnits="userSpaceOnUse" gradientTransform="matrix(1 0 0 1 8.5 6.5230279946304535)"  x1="0" y1="49.57848600268478" x2="119.58375500213626" y2="49.57848600268478">
<stop offset="26.499999999999996%" style="stop-color:rgb(250,217,97);stop-opacity: 1"/>
<stop offset="72.5%" style="stop-color:rgb(247,107,28);stop-opacity: 1"/>
</linearGradient>
<path style="stroke: none; stroke-width: 1; stroke-dasharray: none; stroke-linecap: butt; stroke-dashoffset: 0; stroke-linejoin: miter; stroke-miterlimit: 4; fill: url(#SVGID_37332_786410); fill-rule: nonzero; opacity: 1;"  paint-order="stroke"  transform=" translate(-68.29187750106813, -56.10151399731523)" d="M 41.73 105.68 C 5.029999999999994 66.05000000000001 46.949999999999996 21.900000000000006 109.65 11.420000000000002 C 164.45 2.2600000000000016 79.61000000000001 8.760000000000002 79.61000000000001 8.760000000000002 L 22.6 38.33 L 11.200000000000001 54.75 L 8.5 64.99 L 21.85 93.05 L 35.900000000000006 102.35 L 41.73 105.68 z" stroke-linecap="round" />
</g>
		<g transform="matrix(1 0 0 1 0 0)"  >
<path style="stroke: none; stroke-width: 1; stroke-dasharray: none; stroke-linecap: butt; stroke-dashoffset: 0; stroke-linejoin: miter; stroke-miterlimit: 4; fill: rgb(0,94,206); fill-rule: nonzero; opacity: 1;"  paint-order="stroke"  transform=" translate(-125, -52.84)" d="M 15.84 69.77 C 15.84 35.769999999999996 77.6 8.199999999999996 153.78 8.199999999999996 C 191.21 8.199999999999996 225.14 14.859999999999996 250 25.659999999999997 C 224.96 10.12 184.1 0 137.94 0 C 61.76 0 0 27.57 0 61.57 C 0 78.87 15.99 94.5 41.73 105.68 C 25.44 95.57 15.84 83.18 15.84 69.77 z" stroke-linecap="round" />
</g>
</g>
</g>
		<g transform="matrix(-0.04934052738599636 0.4694437599139184 0.3078015477679325 -0.44087230900210733 75.99937586322392 -48.78001044982838)"  >
<g style=""  paint-order="stroke"   >
		<g transform="matrix(1 0 0 1 0 0)"  >
<linearGradient id="SVGID_37333_786411" gradientUnits="userSpaceOnUse" gradientTransform="matrix(1 0 0 1 0.0008263189533153081 0)"  x1="0" y1="44.95867079226349" x2="249.99917368104667" y2="44.95867079226349">
<stop offset="31%" style="stop-color:rgb(247,107,28);stop-opacity: 1"/>
<stop offset="92.5%" style="stop-color:rgb(250,217,97);stop-opacity: 1"/>
</linearGradient>
<path style="stroke: none; stroke-width: 1; stroke-dasharray: none; stroke-linecap: butt; stroke-dashoffset: 0; stroke-linejoin: miter; stroke-miterlimit: 4; fill: url(#SVGID_37333_786411); fill-rule: nonzero; opacity: 1;"  paint-order="stroke"  transform=" translate(-125.00041315947665, -44.95867079226349)" d="M 0.06 0 C 8.370000000000001 21.63 23.98 41.11 43.99 52.27 C 62.17 62.55 83.72 65.8 104.5 66.22 C 153.42000000000002 67.1 202.49 55.04 250 43.08 C 240.12 50.73 229.32999999999998 57.11 218.2 62.739999999999995 C 173.38 85.00999999999999 119.57999999999998 97.34 69.82 85.07 C 44.169999999999995 78.71 20.019999999999996 61.019999999999996 8.519999999999996 37.029999999999994 C 2.83 25.55 -0.49 12.73 0.06 0 L 0.06 0 z" stroke-linecap="round" />
</g>
</g>
</g>
		<g transform="matrix(0.2071085946791365 -0.3895146152137389 0.08673736863605357 0.2929635619148584 58.471651919948556 -30.360608925648677)"  >
<g style=""  paint-order="stroke"   >
		<g transform="matrix(1 0 0 1 0 0)"  >
<linearGradient id="SVGID_37334_786412" gradientUnits="userSpaceOnUse" gradientTransform="matrix(1 0 0 1 0.0008263189533153081 0)"  x1="0" y1="44.95867079226349" x2="249.99917368104667" y2="44.95867079226349">
<stop offset="26.499999999999996%" style="stop-color:rgb(250,217,97);stop-opacity: 1"/>
<stop offset="72.5%" style="stop-color:rgb(247,107,28);stop-opacity: 1"/>
</linearGradient>
<path style="stroke: none; stroke-width: 1; stroke-dasharray: none; stroke-linecap: butt; stroke-dashoffset: 0; stroke-linejoin: miter; stroke-miterlimit: 4; fill: url(#SVGID_37334_786412); fill-rule: nonzero; opacity: 1;"  paint-order="stroke"  transform=" translate(-125.00041315947665, -44.95867079226349)" d="M 0.06 0 C 8.370000000000001 21.63 23.98 41.11 43.99 52.27 C 62.17 62.55 83.72 65.8 104.5 66.22 C 153.42000000000002 67.1 202.49 55.04 250 43.08 C 240.12 50.73 229.32999999999998 57.11 218.2 62.739999999999995 C 173.38 85.00999999999999 119.57999999999998 97.34 69.82 85.07 C 44.169999999999995 78.71 20.019999999999996 61.019999999999996 8.519999999999996 37.029999999999994 C 2.83 25.55 -0.49 12.73 0.06 0 L 0.06 0 z" stroke-linecap="round" />
</g>
</g>
</g>
		<g transform="matrix(0.6829119857751093 0 0 0.6829119857751093 11.11872050779158 6.149407015629038)"  >
<g style=""  paint-order="stroke"   >
		<g transform="matrix(1 0 0 1 4.8779077025299955 0)"  >
<path style="stroke: none; stroke-width: 1; stroke-dasharray: none; stroke-linecap: butt; stroke-dashoffset: 0; stroke-linejoin: miter; stroke-miterlimit: 4; fill: rgb(0,94,206); fill-rule: nonzero; opacity: 1;"  paint-order="stroke"  transform=" translate(150.12203436470344, -396.999987247685)" d="M -93.67519 447.81058 C -97.27584 454.1272 -102.00277 459.70688 -106.69809000000001 465.24448 C -118.28264000000001 478.90738 -125.38718 485.88285 -136.35076 498.62671 C -137.62006 500.10208 -139.41904 501.03012 -141.35776 501.20126 L -156.83634 502.56753 C -158.4704 502.71175999999997 -159.50142 500.85454999999996 -158.51566 499.54335999999995 C -147.77175 485.25246999999996 -132.33204 466.64378999999997 -125.58473000000001 452.12697999999995 C -124.85838000000001 450.55834999999996 -124.16352 448.69494 -124.99512000000001 447.17894999999993 C -126.84801000000002 443.81004999999993 -136.24931 439.53581999999994 -139.64987000000002 438.57780999999994 C -142.47122000000002 437.7776999999999 -146.94549000000004 436.86180999999993 -149.65118 438.59883999999994 C -151.31439 439.66212999999993 -153.71473 442.91524999999996 -154.97815 444.42067999999995 C -162.97591 454.00310999999994 -204.93645 505.48805999999996 -214.45438000000001 517.1605199999999 C -215.68616 518.67108 -217.46058000000002 519.63727 -219.3973 519.8569299999999 C -225.64454 520.56549 -231.41689 521.2291799999999 -237.63758 521.98516 C -239.25172 522.18133 -240.35464000000002 520.3883 -239.44274000000001 519.0420399999999 C -224.86213 497.5161299999999 -210.15511 476.04984999999994 -197.5732 453.2744599999999 C -181.79218 424.7127799999999 -164.42147 389.5397499999999 -170.62230000000002 355.6721299999999 C -125.42693000000003 364.37848999999994 -113.37263000000002 389.8660999999999 -112.24622000000002 397.07755999999995 C -111.08807000000002 404.56278999999995 -112.51996000000003 412.94278999999995 -112.51996000000003 412.94278999999995 C -108.07729000000003 415.48001999999997 -104.02403000000002 417.62762999999995 -99.58136000000003 420.16486999999995 C -96.98105000000004 421.64924999999994 -94.31751000000003 423.18631999999997 -92.44355000000003 425.52341999999993 C -87.49555 431.69266 -89.76945 440.92548 -93.67519 447.81058 z M -67.14524 272.8931 C -68.45100000000001 271.40879 -70.85998000000001 271.84317 -71.56901 273.68857 C -74.24342 280.64926 -77.45648 287.40793 -81.25129000000001 293.83524 C -96.21112000000001 319.13334 -121.69866000000002 342.56803 -152.66081000000003 342.98908 C -124.66754000000003 350.26377 -116.65597000000002 368.13981 -110.86574000000002 387.18444999999997 C -110.22357000000002 372.56143 -102.63313000000002 354.98017 -93.63189000000001 343.62078999999994 C -85.11488000000001 332.86144999999993 -79.25897 323.9582199999999 -71.97376000000001 312.3251399999999 C -66.16402000000001 303.0651899999999 -61.056500000000014 288.24279999999993 -60.48099000000001 281.6549099999999 C -60.419570000000014 280.95181999999994 -60.66522000000001 280.2592199999999 -61.13140000000001 279.7292799999999 L -67.14524 272.8931 z M -142.02017 331.11652 C -130.25546 331.11652 -120.71827 321.57932 -120.71827 309.81460999999996 C -120.71827 298.0498999999999 -130.25546 288.51269999999994 -142.02017 288.51269999999994 C -153.78489000000002 288.51269999999994 -163.32208 298.0498999999999 -163.32208 309.81460999999996 C -163.32208 321.57932 -153.7849 331.11652 -142.02017 331.11652 z" stroke-linecap="round" />
</g>
		<g transform="matrix(1 0 0 1 14.350164374080606 -20.417922247685)"  >
<path style="stroke: none; stroke-width: 1; stroke-dasharray: none; stroke-linecap: butt; stroke-dashoffset: 0; stroke-linejoin: miter; stroke-miterlimit: 4; fill: rgb(0,59,171); fill-rule: nonzero; opacity: 1;"  paint-order="stroke"  transform=" translate(140.64977769315283, -376.582065)" d="M -111.79725 403.53683 L -111.79725 403.54736 L -112.5236 412.93805000000003 C -116.35583 386.12402000000003 -150.4655 377.39652 -169.38376 372.98538 C -169.20487 367.20569 -169.57318 361.41546 -170.62595 355.66736000000003 C -125.43057999999999 364.37375000000003 -113.37640999999999 389.86133 -112.24986999999999 397.07279000000005 C -111.91316 399.23096 -111.79725 401.46289 -111.79725 403.53683 z M -121.23404 352.21277 C -125.22407999999999 347.65423999999996 -129.96693 343.21596999999997 -135.06217999999998 340.22607999999997 C -140.69460999999998 341.93154999999996 -146.56888999999998 342.90009 -152.66447 342.98431999999997 C -124.70307 350.24848 -116.68083999999999 368.09292999999997 -110.89059999999999 387.11645999999996 L -110.78522 385.80047999999994 L -110.722 384.9582899999999 C -110.24933 373.39624 -113.20152 361.39288 -121.23404 352.21277 z" stroke-linecap="round" />
</g>
		<g transform="matrix(1 0 0 1 -24.888813268592543 -23.603766117291457)"  >
<path style="stroke: none; stroke-width: 1; stroke-dasharray: none; stroke-linecap: butt; stroke-dashoffset: 0; stroke-linejoin: miter; stroke-miterlimit: 4; fill: rgb(5,164,225); fill-rule: nonzero; opacity: 1;"  paint-order="stroke"  transform=" translate(179.88875533582598, -373.39622113039354)" d="M -242.54019 412.12524 C -241.49388 413.02676 -239.90108 412.7994 -239.13129999999998 411.65271 C -183.15677 328.27020000000005 -126.38483999999998 381.30707 -126.38483999999998 381.30707 C -117.67839999999998 389.30811 -111.90923999999998 400.97284 -112.51992999999999 412.94281 C -111.84328999999998 409.77628 -111.25711999999999 406.56744000000003 -110.82002999999999 403.33334 C -107.14101999999998 376.11154 -121.49822999999999 349.33014000000003 -146.68839 338.37494000000004 C -170.82853 327.87637000000007 -208.41894 330.43079000000006 -249.23987 403.93124 C -249.76756 404.8814 -249.55516 406.08108 -248.73178 406.79052 L -242.54019 412.12524 z" stroke-linecap="round" />
</g>
</g>
</g>
		<g transform="matrix(0.5338711298681084 -0.41690726160415653 -0.1565553231556106 0.896819074665059 -3.643915934706399 -2.4803596796150202)"  >
<g style=""  paint-order="stroke"   >
		<g transform="matrix(1 0 0 1 0 0)"  >
<linearGradient id="SVGID_37334_786413" gradientUnits="userSpaceOnUse" gradientTransform="matrix(1 0 0 1 0.0008263189533153081 0)"  x1="0" y1="44.95867079226349" x2="249.99917368104667" y2="44.95867079226349">
<stop offset="26.499999999999996%" style="stop-color:rgb(250,217,97);stop-opacity: 1"/>
<stop offset="72.5%" style="stop-color:rgb(247,107,28);stop-opacity: 1"/>
</linearGradient>
<path style="stroke: none; stroke-width: 1; stroke-dasharray: none; stroke-linecap: butt; stroke-dashoffset: 0; stroke-linejoin: miter; stroke-miterlimit: 4; fill: url(#SVGID_37334_786413); fill-rule: nonzero; opacity: 1;"  paint-order="stroke"  transform=" translate(-125.00041315947665, -44.95867079226349)" d="M 0.06 0 C 8.370000000000001 21.63 23.98 41.11 43.99 52.27 C 62.17 62.55 83.72 65.8 104.5 66.22 C 153.42000000000002 67.1 202.49 55.04 250 43.08 C 240.12 50.73 229.32999999999998 57.11 218.2 62.739999999999995 C 173.38 85.00999999999999 119.57999999999998 97.34 69.82 85.07 C 44.169999999999995 78.71 20.019999999999996 61.019999999999996 8.519999999999996 37.029999999999994 C 2.83 25.55 -0.49 12.73 0.06 0 L 0.06 0 z" stroke-linecap="round" />
</g>
</g>
</g>
		<g transform="matrix(0.22083800536783177 0 0 0.22083800536783174 83.59780302330705 -92.22157757105805)"  >
<g style=""  paint-order="stroke"   >
		<g transform="matrix(1 0 0 1 0 0)"  >
<linearGradient id="SVGID_37336_786414" gradientUnits="userSpaceOnUse" gradientTransform="matrix(1 0 0 1 -125 -118.882055)"  x1="0" y1="0" x2="0" y2="238">
<stop offset="0%" style="stop-color:rgb(250,217,97);stop-opacity: 1"/>
<stop offset="100%" style="stop-color:rgb(247,107,28);stop-opacity: 1"/>
</linearGradient>
<polygon style="stroke: none; stroke-width: 1; stroke-dasharray: none; stroke-linecap: butt; stroke-dashoffset: 0; stroke-linejoin: miter; stroke-miterlimit: 4; fill: url(#SVGID_37336_786414); fill-rule: nonzero; opacity: 1;"  paint-order="stroke"  points="-0.00001000000000317414,-118.882055 46.352540000000005,-51.24809499999999 125,-28.06425499999999 75,36.91970500000001 77.25424000000001,118.882055 -0.00001000000000317414,91.41039500000001 -77.25425,118.882055 -75,36.91970500000001 -125,-28.06425499999999 -46.352549999999994,-51.24809499999999 " />
</g>
</g>
</g>
		<g transform="matrix(0.1693104355195979 0 0 0.16931043551959793 83.88745654150205 -94.5222097578685)"  >
<g style=""  paint-order="stroke"   >
		<g transform="matrix(1 0 0 1 0 0)"  >
<linearGradient id="SVGID_37337_786415" gradientUnits="userSpaceOnUse" gradientTransform="matrix(1 0 0 1 -125 -118.882055)"  x1="124.99999999999997" y1="0" x2="125.00000000000003" y2="237.76411">
<stop offset="0%" style="stop-color:rgb(255,233,156);stop-opacity: 1"/>
<stop offset="100%" style="stop-color:rgb(248,164,38);stop-opacity: 1"/>
</linearGradient>
<polygon style="stroke: none; stroke-width: 1; stroke-dasharray: none; stroke-linecap: butt; stroke-dashoffset: 0; stroke-linejoin: miter; stroke-miterlimit: 4; fill: url(#SVGID_37337_786415); fill-rule: nonzero; opacity: 1;"  paint-order="stroke"  points="-0.00001000000000317414,-118.882055 46.352540000000005,-51.24809499999999 125,-28.06425499999999 75,36.91970500000001 77.25424000000001,118.882055 -0.00001000000000317414,91.41039500000001 -77.25425,118.882055 -75,36.91970500000001 -125,-28.06425499999999 -46.352549999999994,-51.24809499999999 " />
</g>
</g>
</g>
</g>
</g>
<g transform="matrix(1.9211538461538462 0 0 1.9211538461538462 815.5282771255063 489.69667967600486)" id="text-logo"  >
<g style=""  paint-order="stroke"   >
		<g transform="matrix(1 0 0 1 0 0)" id="text-logo-path-0"  >
<path style="stroke: none; stroke-width: 0; stroke-dasharray: none; stroke-linecap: butt; stroke-dashoffset: 0; stroke-linejoin: miter; stroke-miterlimit: 4; fill: rgb(15,61,154); fill-rule: nonzero; opacity: 1;"  paint-order="stroke"  transform=" translate(-186.67000000000002, 15.409999999999998)" d="M 13.89 -6.44 L 9.66 -6.44 L 9.66 -24.38 L 13.89 -24.38 C 18.68 -24.38 22.45 -20.42 22.45 -15.41 C 22.45 -10.44 18.68 -6.44 13.89 -6.44 Z M 14.35 -30.82 L 2.3 -30.82 L 2.3 0 L 14.35 0 C 20.01 0 24.98 -2.99 27.74 -7.73 C 29.12 -10.07 29.81 -12.65 29.81 -15.41 C 29.81 -20.93 26.91 -25.94 22.17 -28.75 C 19.83 -30.13 17.2 -30.82 14.35 -30.82 Z M 44.07 0 L 44.07 -30.82 L 36.71 -30.82 L 36.71 0 Z M 67.8 -9.89 L 73.37 -9.89 C 71.85 -8.05 69.55 -6.9 66.98 -6.9 C 62.28 -6.9 58.56 -10.67 58.56 -15.41 C 58.56 -20.15 62.33 -23.92 66.98 -23.92 C 69.92 -23.92 72.63 -22.36 74.15 -19.92 L 80.64 -23.69 C 77.74 -28.34 72.68 -31.33 66.98 -31.33 C 61.09 -31.33 55.89 -28.24 53.08 -23.37 C 51.66 -20.93 50.97 -18.26 50.97 -15.41 C 50.97 -9.71 54 -4.55 58.93 -1.66 C 61.36 -0.23 64.08 0.51 66.98 0.51 C 70.15 0.51 73.14 -0.41 75.62 -1.98 L 75.62 0 L 82.98 0 L 82.98 -16.33 L 67.8 -16.33 Z M 102.63 -31.28 C 95.5 -31.28 90.62 -27.55 90.62 -21.71 C 90.62 -17.07 93.33 -14.12 98.76 -12.93 L 105.11 -11.55 C 107.13 -11.13 108.15 -10.4 108.15 -9.34 C 108.15 -7.73 106.58 -6.9 103.45 -6.9 C 100.92 -6.9 98.35 -8.37 97.47 -10.72 L 89.88 -8.05 C 91.17 -2.53 96.42 0.46 103.04 0.46 C 107.32 0.46 111.37 -0.92 113.76 -3.91 C 114.95 -5.38 115.55 -7.22 115.55 -9.38 C 115.55 -14.03 112.79 -16.97 107.23 -18.22 L 100.92 -19.64 C 99.31 -20.01 98.21 -20.75 98.21 -21.71 C 98.21 -23.32 100.1 -23.92 102.53 -23.92 C 105.52 -23.92 107.46 -23.18 107.87 -20.65 L 114.95 -23.41 C 113.44 -28.57 108.7 -31.28 102.63 -31.28 Z M 142.05 0 L 144.35 -5.98 L 155.57 -5.98 L 157.87 0 L 165.97 0 L 154.01 -30.82 L 145.91 -30.82 L 133.95 0 Z M 146.88 -12.42 L 149.96 -20.38 L 153.04 -12.42 Z M 180.23 0 L 180.23 -19.04 L 191.45 0 L 200.47 0 L 200.47 -30.82 L 193.11 -30.82 L 193.11 -11.68 L 181.84 -30.82 L 172.87 -30.82 L 172.87 0 Z M 218.96 -6.44 L 214.73 -6.44 L 214.73 -24.38 L 218.96 -24.38 C 223.74 -24.38 227.52 -20.42 227.52 -15.41 C 227.52 -10.44 223.74 -6.44 218.96 -6.44 Z M 219.42 -30.82 L 207.37 -30.82 L 207.37 0 L 219.42 0 C 225.08 0 230.05 -2.99 232.81 -7.73 C 234.19 -10.07 234.88 -12.65 234.88 -15.41 C 234.88 -20.93 231.98 -25.94 227.24 -28.75 C 224.89 -30.13 222.27 -30.82 219.42 -30.82 Z M 270.11 -9.89 L 275.68 -9.89 C 274.16 -8.05 271.86 -6.9 269.28 -6.9 C 264.59 -6.9 260.87 -10.67 260.87 -15.41 C 260.87 -20.15 264.64 -23.92 269.28 -23.92 C 272.23 -23.92 274.94 -22.36 276.46 -19.92 L 282.95 -23.69 C 280.05 -28.34 274.99 -31.33 269.28 -31.33 C 263.4 -31.33 258.2 -28.24 255.39 -23.37 C 253.97 -20.93 253.28 -18.26 253.28 -15.41 C 253.28 -9.71 256.31 -4.55 261.23 -1.66 C 263.67 -0.23 266.39 0.51 269.28 0.51 C 272.46 0.51 275.45 -0.41 277.93 -1.98 L 277.93 0 L 285.29 0 L 285.29 -16.33 L 270.11 -16.33 Z M 299.55 0 L 299.55 -30.82 L 292.19 -30.82 L 292.19 0 Z M 323.29 -9.89 L 328.85 -9.89 C 327.34 -8.05 325.04 -6.9 322.46 -6.9 C 317.77 -6.9 314.04 -10.67 314.04 -15.41 C 314.04 -20.15 317.81 -23.92 322.46 -23.92 C 325.4 -23.92 328.12 -22.36 329.64 -19.92 L 336.12 -23.69 C 333.22 -28.34 328.16 -31.33 322.46 -31.33 C 316.57 -31.33 311.37 -28.24 308.57 -23.37 C 307.14 -20.93 306.45 -18.26 306.45 -15.41 C 306.45 -9.71 309.49 -4.55 314.41 -1.66 C 316.85 -0.23 319.56 0.51 322.46 0.51 C 325.63 0.51 328.62 -0.41 331.11 -1.98 L 331.11 0 L 338.47 0 L 338.47 -16.33 L 323.29 -16.33 Z M 358.11 -31.28 C 350.98 -31.28 346.1 -27.55 346.1 -21.71 C 346.1 -17.07 348.82 -14.12 354.25 -12.93 L 360.59 -11.55 C 362.62 -11.13 363.63 -10.4 363.63 -9.34 C 363.63 -7.73 362.07 -6.9 358.94 -6.9 C 356.41 -6.9 353.83 -8.37 352.96 -10.72 L 345.37 -8.05 C 346.66 -2.53 351.9 0.46 358.52 0.46 C 362.8 0.46 366.85 -0.92 369.24 -3.91 C 370.44 -5.38 371.04 -7.22 371.04 -9.38 C 371.04 -14.03 368.28 -16.97 362.71 -18.22 L 356.41 -19.64 C 354.8 -20.01 353.69 -20.75 353.69 -21.71 C 353.69 -23.32 355.58 -23.92 358.02 -23.92 C 361.01 -23.92 362.94 -23.18 363.35 -20.65 L 370.44 -23.41 C 368.92 -28.57 364.18 -31.28 358.11 -31.28 Z" stroke-linecap="round" />
</g>
</g>
</g>
<g transform="matrix(1.9211538461538462 0 0 1.9211538461538462 815.3529718370448 606.9521430169884)" id="tagline-343996bd-29a2-4a68-bd6a-c8ab96e6c788-logo"  >
<g style=""  paint-order="stroke"   >
		<g transform="matrix(1 0 0 1 -5.684342e-14 0)" id="tagline-343996bd-29a2-4a68-bd6a-c8ab96e6c788-logo-path-0"  >
<path style="stroke: none; stroke-width: 0; stroke-dasharray: none; stroke-linecap: butt; stroke-dashoffset: 0; stroke-linejoin: miter; stroke-miterlimit: 4; fill: rgb(0,0,0); fill-rule: nonzero; opacity: 1;"  paint-order="stroke"  transform=" translate(-223.135, 5.695)" d="M 5.87 0 L 8.81 -9.32 L 11.75 0 L 13.18 0 L 16.78 -11.39 L 15.35 -11.39 L 12.46 -2.26 L 9.59 -11.39 L 8.04 -11.39 L 5.15 -2.26 L 2.28 -11.39 L 0.85 -11.39 L 4.44 0 Z M 24.63 0 L 24.63 -5.1 L 31.43 -5.1 L 31.43 0 L 32.79 0 L 32.79 -11.39 L 31.43 -11.39 L 31.43 -6.29 L 24.63 -6.29 L 24.63 -11.39 L 23.27 -11.39 L 23.27 0 Z M 39.29 0 L 47.45 0 L 47.45 -1.19 L 40.65 -1.19 L 40.65 -5.1 L 46.43 -5.1 L 46.43 -6.29 L 40.65 -6.29 L 40.65 -10.2 L 47.45 -10.2 L 47.45 -11.39 L 39.29 -11.39 Z M 55.3 0 L 55.3 -4.74 L 58.58 -4.74 L 61.56 0 L 63.15 0 L 60.16 -4.79 C 61.81 -5.07 63.04 -6.41 63.04 -8.09 C 63.04 -9.95 61.49 -11.39 59.55 -11.39 L 53.94 -11.39 L 53.94 0 Z M 59.55 -5.92 L 55.3 -5.93 L 55.3 -10.2 L 59.47 -10.2 C 60.84 -10.2 61.76 -9.37 61.76 -8.09 C 61.76 -6.8 60.89 -5.95 59.55 -5.92 Z M 69.65 0 L 77.81 0 L 77.81 -1.19 L 71.01 -1.19 L 71.01 -5.1 L 76.79 -5.1 L 76.79 -6.29 L 71.01 -6.29 L 71.01 -10.2 L 77.81 -10.2 L 77.81 -11.39 L 69.65 -11.39 Z M 97.94 0 L 97.94 -10.2 L 102.02 -10.2 L 102.02 -11.39 L 92.5 -11.39 L 92.5 -10.2 L 96.58 -10.2 L 96.58 0 Z M 107.42 0 L 108.6 -2.81 L 114.31 -2.81 L 115.48 0 L 116.94 0 L 112.18 -11.39 L 110.72 -11.39 L 105.96 0 Z M 109.09 -4 L 111.45 -9.64 L 113.81 -4 Z M 123.44 0 L 131.6 0 L 131.6 -1.19 L 124.8 -1.19 L 124.8 -11.39 L 123.44 -11.39 Z M 138.09 0 L 146.25 0 L 146.25 -1.19 L 139.45 -1.19 L 139.45 -5.1 L 145.23 -5.1 L 145.23 -6.29 L 139.45 -6.29 L 139.45 -10.2 L 146.25 -10.2 L 146.25 -11.39 L 138.09 -11.39 Z M 154.12 0 L 154.12 -9.45 L 160.82 0 L 162.28 0 L 162.28 -11.39 L 160.92 -11.39 L 160.92 -1.92 L 154.21 -11.39 L 152.75 -11.39 L 152.76 -11.37 L 152.76 0 Z M 174.22 0 L 174.22 -10.2 L 178.3 -10.2 L 178.3 -11.39 L 168.78 -11.39 L 168.78 -10.2 L 172.86 -10.2 L 172.86 0 Z M 194.34 0 L 194.34 -8.62 L 198.41 0 L 199.75 0 L 203.83 -8.65 L 203.83 0 L 205.19 0 L 205.19 -11.39 L 203.8 -11.39 L 199.09 -1.39 L 194.36 -11.39 L 192.98 -11.39 L 192.98 0 Z M 211.68 0 L 219.84 0 L 219.84 -1.19 L 213.04 -1.19 L 213.04 -5.1 L 218.82 -5.1 L 218.82 -6.29 L 213.04 -6.29 L 213.04 -10.2 L 219.84 -10.2 L 219.84 -11.39 L 211.68 -11.39 Z M 226.34 0 L 234.5 0 L 234.5 -1.19 L 227.7 -1.19 L 227.7 -5.1 L 233.48 -5.1 L 233.48 -6.29 L 227.7 -6.29 L 227.7 -10.2 L 234.5 -10.2 L 234.5 -11.39 L 226.34 -11.39 Z M 246.43 0 L 246.43 -10.2 L 250.51 -10.2 L 250.51 -11.39 L 240.99 -11.39 L 240.99 -10.2 L 245.07 -10.2 L 245.07 0 Z M 258.3 -3.54 L 257.01 -3.06 C 257.81 -0.9 259.35 0.17 261.66 0.17 C 264.13 0.17 265.86 -1.24 265.86 -3.15 C 265.86 -4.5 265.01 -5.3 263.98 -5.68 C 263.43 -5.88 262.75 -6.07 261.89 -6.27 C 260.41 -6.61 259.71 -6.83 259.17 -7.36 C 258.88 -7.63 258.74 -7.97 258.74 -8.4 C 258.74 -9.57 259.91 -10.37 261.41 -10.37 C 262.96 -10.37 263.77 -9.74 264.44 -8.08 L 265.69 -8.59 C 264.89 -10.59 263.52 -11.56 261.41 -11.56 C 259.17 -11.56 257.38 -10.23 257.38 -8.4 C 257.38 -6.95 258.3 -6.1 259.37 -5.7 C 259.93 -5.47 260.63 -5.27 261.53 -5.05 C 262.91 -4.71 263.59 -4.54 264.11 -4.06 C 264.37 -3.83 264.5 -3.52 264.5 -3.15 C 264.5 -1.87 263.42 -1.02 261.66 -1.02 C 259.81 -1.02 258.89 -1.87 258.3 -3.54 Z M 286.47 0.19 C 288.64 0.19 290.56 -0.97 291.6 -2.77 C 292.13 -3.67 292.38 -4.64 292.38 -5.7 C 292.38 -7.8 291.26 -9.71 289.44 -10.78 C 288.54 -11.31 287.54 -11.58 286.47 -11.58 C 284.29 -11.58 282.37 -10.44 281.33 -8.64 C 280.81 -7.74 280.55 -6.75 280.55 -5.7 C 280.55 -3.59 281.67 -1.68 283.49 -0.61 C 284.39 -0.09 285.4 0.19 286.47 0.19 Z M 286.47 -1.1 C 284.82 -1.1 283.34 -1.97 282.52 -3.38 C 282.12 -4.08 281.91 -4.86 281.91 -5.7 C 281.91 -7.38 282.78 -8.86 284.19 -9.69 C 284.89 -10.1 285.65 -10.3 286.47 -10.3 C 288.12 -10.3 289.6 -9.42 290.41 -8.01 C 290.82 -7.31 291.02 -6.53 291.02 -5.7 C 291.02 -4.01 290.16 -2.53 288.75 -1.72 C 288.05 -1.31 287.28 -1.1 286.47 -1.1 Z M 300.24 0 L 300.24 -4.42 L 304.49 -4.42 C 306.44 -4.42 307.97 -5.95 307.97 -7.91 C 307.97 -9.86 306.44 -11.39 304.49 -11.39 L 298.88 -11.39 L 298.88 0 Z M 304.4 -5.61 L 300.24 -5.61 L 300.24 -10.2 L 304.4 -10.2 C 305.78 -10.2 306.7 -9.28 306.7 -7.91 C 306.7 -6.53 305.78 -5.61 304.4 -5.61 Z M 315.83 0 L 315.83 -4.42 L 320.08 -4.42 C 322.03 -4.42 323.56 -5.95 323.56 -7.91 C 323.56 -9.86 322.03 -11.39 320.08 -11.39 L 314.47 -11.39 L 314.47 0 Z M 319.99 -5.61 L 315.83 -5.61 L 315.83 -10.2 L 319.99 -10.2 C 321.37 -10.2 322.29 -9.28 322.29 -7.91 C 322.29 -6.53 321.37 -5.61 319.99 -5.61 Z M 335.97 0.19 C 338.15 0.19 340.07 -0.97 341.11 -2.77 C 341.63 -3.67 341.89 -4.64 341.89 -5.7 C 341.89 -7.8 340.77 -9.71 338.95 -10.78 C 338.05 -11.31 337.04 -11.58 335.97 -11.58 C 333.8 -11.58 331.87 -10.44 330.84 -8.64 C 330.31 -7.74 330.06 -6.75 330.06 -5.7 C 330.06 -3.59 331.18 -1.68 333 -0.61 C 333.9 -0.09 334.9 0.19 335.97 0.19 Z M 335.97 -1.1 C 334.32 -1.1 332.84 -1.97 332.03 -3.38 C 331.62 -4.08 331.42 -4.86 331.42 -5.7 C 331.42 -7.38 332.28 -8.86 333.69 -9.69 C 334.39 -10.1 335.16 -10.3 335.97 -10.3 C 337.62 -10.3 339.1 -9.42 339.92 -8.01 C 340.32 -7.31 340.53 -6.53 340.53 -5.7 C 340.53 -4.01 339.66 -2.53 338.25 -1.72 C 337.55 -1.31 336.79 -1.1 335.97 -1.1 Z M 349.74 0 L 349.74 -4.74 L 353.02 -4.74 L 356 0 L 357.6 0 L 354.6 -4.79 C 356.25 -5.07 357.48 -6.41 357.48 -8.09 C 357.48 -9.95 355.93 -11.39 353.99 -11.39 L 348.38 -11.39 L 348.38 0 Z M 353.99 -5.92 L 349.74 -5.93 L 349.74 -10.2 L 353.91 -10.2 C 355.28 -10.2 356.2 -9.37 356.2 -8.09 C 356.2 -6.8 355.33 -5.95 353.99 -5.92 Z M 368.51 0 L 368.51 -10.2 L 372.59 -10.2 L 372.59 -11.39 L 363.07 -11.39 L 363.07 -10.2 L 367.15 -10.2 L 367.15 0 Z M 387.24 -11.39 L 387.24 -4.62 C 387.24 -2.55 385.7 -1.1 383.86 -1.1 C 381.89 -1.1 380.44 -2.6 380.44 -4.62 L 380.44 -11.39 L 379.08 -11.39 L 379.08 -4.62 C 379.08 -2.87 380.02 -1.34 381.48 -0.48 C 382.21 -0.05 382.99 0.17 383.86 0.17 C 385.56 0.17 387.12 -0.77 387.97 -2.23 C 388.4 -2.96 388.6 -3.76 388.6 -4.62 L 388.6 -11.39 Z M 396.47 0 L 396.47 -9.45 L 403.17 0 L 404.63 0 L 404.63 -11.39 L 403.27 -11.39 L 403.27 -1.92 L 396.56 -11.39 L 395.1 -11.39 L 395.11 -11.37 L 395.11 0 Z M 412.49 0 L 412.49 -11.39 L 411.13 -11.39 L 411.13 0 Z M 424.42 0 L 424.42 -10.2 L 428.5 -10.2 L 428.5 -11.39 L 418.98 -11.39 L 418.98 -10.2 L 423.06 -10.2 L 423.06 0 Z M 440.88 -4.39 L 441.01 -4.59 L 445.42 -11.39 L 443.79 -11.39 L 440.2 -5.85 L 436.63 -11.39 L 435 -11.39 L 439.38 -4.59 L 439.52 -4.39 L 439.52 0 L 440.88 0 Z" stroke-linecap="round" />
</g>
</g>
</g>
</svg>